<svg xmlns="http://www.w3.org/2000/svg" viewBox="0 0 64 64"><rect width="64" height="64" fill="#000"/><g fill="#b026ff"><rect x="12" y="14" width="6" height="6"/><rect x="12" y="22" width="6" height="6"/><rect x="12" y="30" width="6" height="6"/><rect x="12" y="38" width="6" height="6"/><rect x="12" y="46" width="6" height="6"/><rect x="20" y="14" width="6" height="6"/><rect x="28" y="22" width="6" height="6"/><rect x="20" y="30" width="6" height="6"/><rect x="28" y="38" width="6" height="6"/><rect x="28" y="46" width="6" height="6"/></g><g fill="#ffc400"><rect x="38" y="14" width="6" height="6"/><rect x="38" y="22" width="6" height="6"/><rect x="38" y="30" width="6" height="6"/><rect x="38" y="38" width="6" height="6"/><rect x="38" y="46" width="6" height="6"/><rect x="46" y="30" width="6" height="6"/><rect x="46" y="22" width="6" height="6"/><rect x="46" y="38" width="6" height="6"/><rect x="52" y="14" width="6" height="6"/><rect x="52" y="46" width="6" height="6"/></g></svg>
